# xmcd
#
# Track frame offsets:
#	182
#	14230
#	31332
#	50422
#	70715
#	86455
#	113107
#	137087
#	159775
#	183480
#
# Disc length: 2738 seconds
#
# Revision: 0
# Processed by: cddbd v1.4PL0 Copyright (c) Steve Scherf et al.
# Submitted via: dBpowerAMP V4.0
#
DISCID=7d0ab00a
DTITLE=Ken Mc Mahan and Slumpy Boy - Ken Mc Mahan and Slumpy Boy
DYEAR=1994
DGENRE=Blues
TTITLE0=What's Wrong with you
TTITLE1=Not gonna crawl
TTITLE2=Wind it up
TTITLE3=Broken Glass
TTITLE4=Fightin Word
TTITLE5=Hellbound Train
TTITLE6=Long Gone
TTITLE7=Loneliness
TTITLE8=Don't want your Love
TTITLE9=Outside Lookin In
EXTD=
EXTT0=
EXTT1=
EXTT2=
EXTT3=
EXTT4=
EXTT5=
EXTT6=
EXTT7=
EXTT8=
EXTT9=
PLAYORDER=
